<svg xmlns="http://www.w3.org/2000/svg" width="397.056" height="211.257" viewBox="0 0 397.056 211.257">
  <g id="Layer_5" data-name="Layer 5" transform="translate(-6.466 -4.393)">
    <path id="Path_50" data-name="Path 50" d="M77.594,151.659s-7.2,1.384-6.385,14.094c.44,6.49,1.239,10.9,7.509,10.842-22.33,1-32.449-17.115-32.449-17.115Z" fill="#ff973e" fill-rule="evenodd"/>
    <path id="Path_51" data-name="Path 51" d="M293.16,28.63c-5.23,1.86-12,4.1-16.43,6.34-7.46,3.73-22.39,11.2-27.61,16.05-5.6,5.6-16.42,15.68-20.16,21.65a48.239,48.239,0,0,0-6.71,13.06c-4.48,20.53-3.36,33.59,2.61,53,5.6,18.66,6.34,27.61,23.51,36.2A146.64,146.64,0,0,0,276,185.75a92.59,92.59,0,0,0,51.5,0c11.2-4.48,29.49-17.91,38.07-26.87l3.73-3.73c7.47-9.71,9.7-20.9,12.69-32.85l.37-1.86c2.24-7.84,3-10.45,1.5-19.41a97.27,97.27,0,0,0-12.69-32.47c-3.73-6-9.71-12.69-14.18-17.91-9.71-11.2-29.86-22.77-45.54-23.14-5.59,0-12.31-.75-18.28,1.12m-37,169.06a26,26,0,0,1-6-3.73c-13.07-4.85-33.59-41.05-21.65-31-1.49-4.1-8.58-25.75-9.33-29.85-1.87-9.71-3-14.56-2.24-25l1.12-10.82-3,12.31c-1.12,4.48-2.61,12.69-1.86,17.55,3.73,16,11.19,32.09,11.19,32.09-.37-1.86-3.73-3.73-5.22-6a79.07,79.07,0,0,1-13.81-45.53c.37-2.61-.75-14.93-1.12-17.17,0,5.23-3.36,28.37-3,33.22,1.49,25.75,7.83,38.06,26.87,55.61,8.95,8.58,9.33,8.21,19.4,14.18l8.59,3.73m59.71,9c-17.54,3.36-16.05,1.12-31.35,0l7.84,2.61,9.7,1.87a86.47,86.47,0,0,0,55.61-13.07c3.36-2.24,3.73-3.73,7.84-6.71,6.34-4.86,16.42-14.93,19.41-22.4l3-7.09a181.366,181.366,0,0,0,10.45-31.35c3.73-21.27.75-39.56-10.07-58.22,4.85,38.07,13.8,29.48,2.23,68.3-5.22,17.54-4.85,15.3-12.31,26.5L370,178.29,366.31,182l-4.11,3c-11.2,9-32.47,18.66-46.65,21.28M370,159.63l-9.71,8.58-10.45,7.84c-8.95,7.46-26.49,14.93-37.32,16-27.24,2.62-48.51-5.22-71.65-18.66,0,7.1,29.85,29.11,44,29.11,6.71,0,14.18,2.24,21.27,1.12,16.42-3,32.09-6.71,42.54-17.54l4.86-4.85,3-3.36,1.49-1.49,1.5-1.87L370,159.63M223,179.78c3,2.61,5.6,6,9,7.84a78,78,0,0,0,32.47,15.67c3.36,1.12,5.6.75,8.58,2.61a145.147,145.147,0,0,0,27.25,9l13.81.75c4.85,0,26.12-4.85,30.6-7.09,17.17-8.21,15.3-9,28-20.16l2.61-1.86C388,174.55,391.68,161.12,398,144.7a73.593,73.593,0,0,0,3-12.32c1.87-9.7,3.74-16.42,1.5-27.62-2.24-10.07,4.48-4.85-8.21-28l-6.72-11.19c-1.87-3.74-3-9.71-4.85-13.44a69.26,69.26,0,0,0-14.93-20.9c-6-5.6-13.06-9-19.78-13.06a97.41,97.41,0,0,0-18.66-9.33,3.34,3.34,0,0,0-3.73.37c0,1.49-.38,0,0,.75l.37.74c1.12,1.5,6,1.87,7.46,3l8.21,4.48c7.47,3.73,16.8,9.33,22.77,14.55C370.78,38,379.37,48.41,382,57c-4.85-5.22-4.48-5.22-10.45-10.82C358.84,35,364.81,35,346.9,25.64a98,98,0,0,0-22.77-8.21A111.21,111.21,0,0,0,217,57.74l-4.48,7.46a6.69,6.69,0,0,1,.75-3.73l3-4.85v-.37l.75-1.12,5.6-9.71c3.73-3.73,6.34-7.46,10.45-11.19a58.8,58.8,0,0,1,9-7.47l7.46-4.48c8.21-6,18.66-10.45,28.74-11.19l20.9-3a41.05,41.05,0,0,1,21.64,1.49c.75,0,6.35,0,4.11-1.86C317,.26,271.51,7,262.18,11.83a105.66,105.66,0,0,0-50.76,44.79c-4.48,8.21-5.22,16.79-7.46,25.75-1.87,4.85-3.73,9-4.11,13.44-2.61,20.15-3.73,36.57,3.73,56l2.24,4.1c.38,1.87,2.62,6.72,5.6,11.2a152.111,152.111,0,0,0,11.2,13.06" fill="#ffba7f" fill-rule="evenodd"/>
    <path id="Path_52" data-name="Path 52" d="M84.58,171.08c-.15.9-.27,1.95-.4,3.18a7.82,7.82,0,0,1-4.88,2.31,8.22,8.22,0,0,1-6.64-2.13c-1.8-1.68-2.93-4.6-3.24-8.45-.6-7.54,2.4-13.1,8-14.35a8.13,8.13,0,0,1,5.54.59,32.769,32.769,0,0,0-.34,4.47l-.33.07c-.65-2.28-2.42-3.44-4.54-3-3.36.72-5.11,5.12-4.59,11.41.49,6.07,2.93,9.64,6.38,9.22a6.79,6.79,0,0,0,4.85-3.5Z" fill="#ff973e"/>
    <path id="Path_53" data-name="Path 53" d="M106.69,159.48A16.73,16.73,0,0,1,104.55,170a10.11,10.11,0,0,1-7.83,4.68,8.81,8.81,0,0,1-8-2.68c-1.93-2.06-3.1-5.17-3.43-9.08a16.84,16.84,0,0,1,1.8-9.9,10.58,10.58,0,0,1,7.19-5.13C101.18,146.3,105.86,150.54,106.69,159.48Zm-17.08,2.71c.61,7,3.08,10.71,6.91,10.25s5.88-5,5.24-12.13c-.68-7.49-3.3-11.16-7.26-10.31C90.76,150.8,89,155.25,89.61,162.19Z" fill="#ff973e"/>
    <path id="Path_54" data-name="Path 54" d="M135.58,154.65a17.2,17.2,0,0,1-2.68,11.7c-2.22,3.12-5.41,4.85-9.68,5.32s-7.31-.48-9.76-2.85-3.77-5.66-4.17-10a17.31,17.31,0,0,1,2.21-11,13.37,13.37,0,0,1,8.82-5.86C128.78,140.11,134.57,144.7,135.58,154.65ZM114.53,158c.73,7.7,3.75,11.8,8.46,11.24s7.26-5.65,6.48-13.57c-.83-8.32-4.06-12.33-8.92-11.29C116,145.38,113.81,150.34,114.53,158Z" fill="#ff973e"/>
    <path id="Path_55" data-name="Path 55" d="M146.42,151l.36-.63,1-1.78c3.18-5.34,5.9-10.35,7.59-13.8a9.75,9.75,0,0,0,2.42-.29,17.808,17.808,0,0,0,2.9-.89c-.74,1.25-.94,1.53-2.69,4.11-4,6.05-4.83,7.3-7.43,11.65l.64.79c4.73,5.76,7.86,9.63,9.24,11.4,2.63,3.27,2.91,3.63,4,4.9a37.066,37.066,0,0,0-4.38.25,28.387,28.387,0,0,0-3.78.67c-3.43-4.77-6.2-8.44-9.55-12.69l-.44-.63.12,1.15c.63,6,1.14,10.16,1.75,13.1a19.079,19.079,0,0,0-3.29.14,21.39,21.39,0,0,0-3.33.61c-.14-4.08-.6-10.17-1.35-17.4-.52-5.08-1.31-10.82-1.78-13.1A30.236,30.236,0,0,0,142,138a20.122,20.122,0,0,0,3-.89c.14,3.42.41,6.73,1,13.4l.11,1.1Z" fill="#ff973e"/>
    <path id="Path_56" data-name="Path 56" d="M169,132a27.438,27.438,0,0,0,3.76-1.09c.19,5.23.59,10.52,1.33,17.05.85,7.52,1.85,14.07,2.54,17.09a33.279,33.279,0,0,0-4.15.21,32.629,32.629,0,0,0-4,.72c-.1-3.51-.68-10.92-1.39-17.29-.79-7.07-1.56-12.32-2.3-16A36.512,36.512,0,0,0,169,132Z" fill="#ff973e"/>
    <path id="Path_57" data-name="Path 57" d="M185.28,138.81c.16,1.88.31,3.13.56,5.31A186.229,186.229,0,0,0,189,163.65a14.18,14.18,0,0,0-2.67,0,9.609,9.609,0,0,0-2.25.52c-.4-6.7-1-13.11-2-22.14a123.889,123.889,0,0,0-2-12.76,15.77,15.77,0,0,0,2.93-.39,7.75,7.75,0,0,0,2.13-.74c2.25,1.91,2.44,2.08,10.91,8.17,4.56,3.24,9.86,7.19,16.82,12.59l-.22-1.74-.61-4.9c-1.31-9.91-1.43-10.91-2.94-19.44a14.111,14.111,0,0,0,2.68-.31,20.861,20.861,0,0,0,2.84-.92c.33,8.73.82,13.62,2.25,25.45l.8,6.86.29,2.3.2,1.54c.1.81.18,1.44.38,2.52a17.08,17.08,0,0,0-3,.05,8.8,8.8,0,0,0-2.22.54c-9.13-7.87-12.7-10.7-26.75-21.19Z" fill="#ff973e"/>
    <path id="Path_58" data-name="Path 58" d="M265.16,122.53c-3.55-4.14-8.61-5.37-15.45-3.83-11.06,2.47-16.56,10.65-15.13,22,1.32,10.37,8.36,16,18.93,14.7a28,28,0,0,0,8.42-2.37c-.16-2.93-.32-4.68-.59-6.74a59.458,59.458,0,0,0-1.81-8.67,56.249,56.249,0,0,0,6-.62c1.75-.3,3.27-.62,6.23-1.39a84.39,84.39,0,0,0,1,11.5,50.588,50.588,0,0,0,1.23,6.45c-9.58,3.63-14.53,4.93-21,5.69-16.74,1.94-27.54-4.71-29-16.83-1.58-12.78,7.85-23.32,25.44-27.44a39.47,39.47,0,0,1,18.05-.49c-1,4.43-1.25,5.87-1.23,7.79Z" fill="#ff973e"/>
    <path id="Path_59" data-name="Path 59" d="M267.94,113.5l3.38,12,9.82-1.23a17.11,17.11,0,0,1,7.06-3.06l2.76-.92A80.768,80.768,0,0,1,305.69,119l15.34-.62c6.14,0,13.19,0,17.8-.61a86.26,86.26,0,0,0,11.35-.92,49.059,49.059,0,0,0,9.21-3.07l2.76-1.84a10.85,10.85,0,0,0,3.68-4.3,6.16,6.16,0,0,0,.31-2.76,8,8,0,0,0-.62-2.14,5.24,5.24,0,0,0-1.22-1.85,7,7,0,0,0-2.15-1.22,12.06,12.06,0,0,0-3.68-.92,29,29,0,0,0-7.68,0c-2.45,0-6.13.61-14.42,1.84q-34.33,5.8-68.43,12.88" fill="#ff973e" fill-rule="evenodd"/>
    <path id="Path_60" data-name="Path 60" d="M39.84,118c-2.42-3.42-7.07-5-12.62-4.09s-9.39,3.94-8.91,7.23c.28,1.87,2,3.3,4.79,4.17,2.19.58,2.19.58,9.78,1.74,11.37,1.67,15.35,4,16.27,9.55.63,3.74-.94,8-4.3,11.59-3.74,4-8.93,6.7-16.81,8.78a73.58,73.58,0,0,1-18.76,2.59,40.3,40.3,0,0,0,.47-12l1.62-.38a14.5,14.5,0,0,0,3.69,4.23c3.2,2.33,8.25,3,13.19,1.78,6.4-1.63,10.43-5.83,9.79-9.9a5,5,0,0,0-3.61-4c-2.18-.78-2.18-.78-11.29-2-11.42-1.58-15.79-4.16-16.57-9.81-1.16-8.44,7.51-15.28,21.18-17.37a40.88,40.88,0,0,1,15.48.4A61.49,61.49,0,0,0,41,117.82Z" fill="#ff973e"/>
    <path id="Path_61" data-name="Path 61" d="M59.92,106.29a51.409,51.409,0,0,0,5.87-1.2,189.706,189.706,0,0,0,2.66,19.5A166.672,166.672,0,0,0,73,144.35a64,64,0,0,0-6.43,1.36c-2.12.55-3.62,1-6.62,2-.27-4.44-1.46-13.62-2.82-21.39a168.811,168.811,0,0,0-4.27-19.27A67.369,67.369,0,0,0,59.92,106.29Z" fill="#ff973e"/>
    <path id="Path_62" data-name="Path 62" d="M81.78,102.62a14.13,14.13,0,0,0,2.78-.16,12.91,12.91,0,0,0,2.57-.67c3.41,4,5.79,6.72,15.63,17.53,2.53,2.71,2.79,3,4.25,4.71,2.29-6,7.34-22,8.45-26.63a12.59,12.59,0,0,0,2.48-.13,10.78,10.78,0,0,0,2.17-.58c.75,2,1,2.49,2.12,5.81.87,2.31,1.49,4,1.68,4.6.71,1.85,1.4,3.65,2,5.46,4,10.86,4.45,12,6.42,16.3a41,41,0,0,0-4.86,1,31.564,31.564,0,0,0-4.1,1.34c-1.29-5-5.55-17.92-7.41-22.51l-.49,1.6c-1,3.36-2.29,7.35-3.43,11-2.6,8-3.22,10.26-4.08,13.93a5,5,0,0,0-1.28.16,5.849,5.849,0,0,0-1.29.51l-.71-.84c-3.16-3.55-5.45-6.14-6.94-7.73-2-2.23-3.81-4.21-6-6.58l-4.12-4.5L86.55,115a248.709,248.709,0,0,0,1.85,25.37,18.239,18.239,0,0,0-3.22.53,23.591,23.591,0,0,0-3.37,1.19c.54-8.13.56-18,0-38.28Z" fill="#ff973e"/>
    <path id="Path_63" data-name="Path 63" d="M143.72,114a84.3,84.3,0,0,0,3.39,11,37.184,37.184,0,0,0-4.38.88,32.878,32.878,0,0,0-4,1.31c-.37-2.95-2.06-11.3-3.39-16.93-.73-3.07-2.1-8.42-2.52-9.76-1.42-4.66-1.42-4.66-1.68-5.54a43.092,43.092,0,0,0,4.69-.49c.85-.13,2.13-.38,3.75-.67s3-.61,3.7-.72c3.45-.53,5.76-.39,7.74.48a8.19,8.19,0,0,1,4.34,5.63c1.48,5.84-2,10.07-9.93,11.77-.64.13-1.12.23-2.31.44l.21.88Zm-1.22-5c.7-.1.9-.14,1.29-.22,3.81-.78,5.43-3.67,4.42-7.76s-3.15-5.57-7.34-4.88a4.351,4.351,0,0,0-1.05.26c.07,1.13,1,5.54,2.55,12Z" fill="#ff973e"/>
    <path id="Path_64" data-name="Path 64" d="M180.06,116.38c-5.58,1.27-5.9,1.35-7.21,1.69-1.53.4-4.91,1.37-8.19,2.37-.55-3.41-1.75-8.82-3.59-16a136.518,136.518,0,0,0-4-13.5c1.91-.12,2.87-.23,4-.4a20.749,20.749,0,0,0,3.1-.7c.68,3.93,1.48,7.47,3.12,13.77,1.55,5.93,2.65,10,3.32,12,.42-.06.88-.17,1-.2,2.49-.62,4.47-1.25,8.16-2.53a9.309,9.309,0,0,0,.29,1.85,6.371,6.371,0,0,0,.61,1.5Z" fill="#ff973e"/>
    <path id="Path_65" data-name="Path 65" d="M183.41,102.55c-1-1.11-1.06-1.14-3.23-3.67-.75-.87-1.57-1.82-2.46-2.88-1.4-1.61-2.46-2.82-2.94-3.41-2.2-2.55-2.44-2.85-3.37-3.84a31.052,31.052,0,0,0,3.46-.33,35.878,35.878,0,0,0,3.6-.77c1.88,2.87,5.92,8.27,8.28,11.14a110.633,110.633,0,0,0,1.86-12.71,7.36,7.36,0,0,0,1.86-.09,6.26,6.26,0,0,0,1.55-.43c-.89,3.29-2.11,9.2-3.21,15.84.25,1.16.38,1.63.62,2.5,1.07,3.85,2,6.69,2.93,9.31a22.678,22.678,0,0,0-3.11.6,22.227,22.227,0,0,0-3,1c-.55-3-1.59-7.57-2.34-10.32Z" fill="#ff973e"/>
  </g>
</svg>
